<svg width="128" height="128" viewBox="0 0 128 128" fill="none" xmlns="http://www.w3.org/2000/svg">
<path d="M120 73.4373C120 101.29 97.4211 52.0422 69.5686 52.0422C15.8244 60.9791 -23.6527 -21.312 19.1374 73.4373C61.9274 168.186 78.7378 36.7595 69.5686 23.006C60.3995 9.25246 120 45.5848 120 73.4373Z" fill="#B3FF98"/>
<path d="M119.337 82.2901C120.982 82.492 122.478 81.3226 122.68 79.678L125.971 52.8793C126.173 51.2348 125.003 49.738 123.359 49.5361C121.714 49.3341 120.217 50.5036 120.015 52.1481L117.091 75.9692L93.2695 73.0443C91.625 72.8424 90.1282 74.0119 89.9262 75.6564C89.7243 77.3009 90.8938 78.7977 92.5383 78.9996L119.337 82.2901ZM95.7498 48.6542L93.3857 50.5012L117.339 81.1594L119.703 79.3124L122.067 77.4655L98.1138 46.8072L95.7498 48.6542Z" fill="#B3FF98"/>
<circle cx="47.6107" cy="32.9899" r="12.9899" fill="#B3FF98"/>
</svg>
